<?xml version="1.0" encoding="utf-8"?>
<!-- Generator: Adobe Illustrator 17.0.0, SVG Export Plug-In . SVG Version: 6.00 Build 0)  -->
<!DOCTYPE svg PUBLIC "-//W3C//DTD SVG 1.1//EN" "http://www.w3.org/Graphics/SVG/1.1/DTD/svg11.dtd">
<svg version="1.1" id="Layer_1" xmlns="http://www.w3.org/2000/svg" xmlns:xlink="http://www.w3.org/1999/xlink" x="0px" y="0px"
	 width="150px" height="47px" viewBox="0 0 150 47" enable-background="new 0 0 150 47" xml:space="preserve">
<g>
	<g>
		<g>
			<path fill="#FF8184" d="M3.449,21.804c-0.276,0-0.5-0.224-0.5-0.5v-0.302c0-0.276,0.224-0.5,0.5-0.5s0.5,0.224,0.5,0.5v0.302
				C3.949,21.58,3.726,21.804,3.449,21.804z"/>
		</g>
		<g>
			<path fill="#FF8184" d="M6.131,21.804c-0.276,0-0.5-0.224-0.5-0.5v-0.552c0-0.276,0.224-0.5,0.5-0.5s0.5,0.224,0.5,0.5v0.552
				C6.631,21.58,6.407,21.804,6.131,21.804z"/>
		</g>
		<g>
			<path fill="#FF8184" d="M8.812,21.804c-0.276,0-0.5-0.224-0.5-0.5v-1.271c0-0.276,0.224-0.5,0.5-0.5s0.5,0.224,0.5,0.5v1.271
				C9.312,21.58,9.088,21.804,8.812,21.804z"/>
		</g>
		<g>
			<path fill="#FF8184" d="M11.494,21.804c-0.276,0-0.5-0.224-0.5-0.5v-2.489c0-0.276,0.224-0.5,0.5-0.5s0.5,0.224,0.5,0.5v2.489
				C11.994,21.58,11.77,21.804,11.494,21.804z"/>
		</g>
		<g>
			<path fill="#FF8184" d="M14.175,21.804c-0.276,0-0.5-0.224-0.5-0.5v-3.973c0-0.276,0.224-0.5,0.5-0.5s0.5,0.224,0.5,0.5v3.973
				C14.675,21.58,14.451,21.804,14.175,21.804z"/>
		</g>
		<g>
			<path fill="#FF8184" d="M16.856,21.804c-0.276,0-0.5-0.224-0.5-0.5v-5.531c0-0.276,0.224-0.5,0.5-0.5s0.5,0.224,0.5,0.5v5.531
				C17.356,21.58,17.133,21.804,16.856,21.804z"/>
		</g>
		<g>
			<path fill="#FF8184" d="M19.538,21.804c-0.276,0-0.5-0.224-0.5-0.5v-7.166c0-0.276,0.224-0.5,0.5-0.5s0.5,0.224,0.5,0.5v7.166
				C20.038,21.58,19.814,21.804,19.538,21.804z"/>
		</g>
		<g>
			<path fill="#FF8184" d="M22.219,21.804c-0.276,0-0.5-0.224-0.5-0.5v-8.725c0-0.276,0.224-0.5,0.5-0.5s0.5,0.224,0.5,0.5v8.725
				C22.719,21.58,22.496,21.804,22.219,21.804z"/>
		</g>
		<g>
			<path fill="#FF8184" d="M24.9,21.804c-0.276,0-0.5-0.224-0.5-0.5V10.657c0-0.276,0.224-0.5,0.5-0.5s0.5,0.224,0.5,0.5v10.647
				C25.4,21.58,25.177,21.804,24.9,21.804z"/>
		</g>
		<g>
			<path fill="#FF8184" d="M27.582,21.804c-0.276,0-0.5-0.224-0.5-0.5V8.994c0-0.276,0.224-0.5,0.5-0.5s0.5,0.224,0.5,0.5v12.31
				C28.082,21.58,27.858,21.804,27.582,21.804z"/>
		</g>
		<g>
			<path fill="#FF8184" d="M30.263,21.804c-0.276,0-0.5-0.224-0.5-0.5V7.784c0-0.276,0.224-0.5,0.5-0.5s0.5,0.224,0.5,0.5v13.52
				C30.763,21.58,30.54,21.804,30.263,21.804z"/>
		</g>
		<g>
			<path fill="#FF8184" d="M32.945,21.804c-0.276,0-0.5-0.224-0.5-0.5V6.725c0-0.276,0.224-0.5,0.5-0.5s0.5,0.224,0.5,0.5v14.579
				C33.445,21.58,33.221,21.804,32.945,21.804z"/>
		</g>
		<g>
			<path fill="#FF8184" d="M35.626,21.804c-0.276,0-0.5-0.224-0.5-0.5V6.088c0-0.276,0.224-0.5,0.5-0.5s0.5,0.224,0.5,0.5v15.216
				C36.126,21.58,35.902,21.804,35.626,21.804z"/>
		</g>
		<g>
			<path fill="#FF8184" d="M38.308,21.804c-0.276,0-0.5-0.224-0.5-0.5V5.861c0-0.276,0.224-0.5,0.5-0.5s0.5,0.224,0.5,0.5v15.442
				C38.808,21.58,38.584,21.804,38.308,21.804z"/>
		</g>
		<g>
			<path fill="#FF8184" d="M40.989,21.804c-0.276,0-0.5-0.224-0.5-0.5V6.088c0-0.276,0.224-0.5,0.5-0.5s0.5,0.224,0.5,0.5v15.216
				C41.489,21.58,41.265,21.804,40.989,21.804z"/>
		</g>
		<g>
			<path fill="#FF8184" d="M43.67,21.804c-0.276,0-0.5-0.224-0.5-0.5V6.725c0-0.276,0.224-0.5,0.5-0.5s0.5,0.224,0.5,0.5v14.579
				C44.17,21.58,43.947,21.804,43.67,21.804z"/>
		</g>
		<g>
			<path fill="#FF8184" d="M46.352,21.804c-0.276,0-0.5-0.224-0.5-0.5V7.784c0-0.276,0.224-0.5,0.5-0.5s0.5,0.224,0.5,0.5v13.52
				C46.852,21.58,46.628,21.804,46.352,21.804z"/>
		</g>
		<g>
			<path fill="#FF8184" d="M49.033,21.804c-0.276,0-0.5-0.224-0.5-0.5V8.994c0-0.276,0.224-0.5,0.5-0.5s0.5,0.224,0.5,0.5v12.31
				C49.533,21.58,49.31,21.804,49.033,21.804z"/>
		</g>
		<g>
			<path fill="#FF8184" d="M51.714,21.804c-0.276,0-0.5-0.224-0.5-0.5V10.657c0-0.276,0.224-0.5,0.5-0.5s0.5,0.224,0.5,0.5v10.647
				C52.214,21.58,51.991,21.804,51.714,21.804z"/>
		</g>
		<g>
			<path fill="#FF8184" d="M54.396,21.804c-0.276,0-0.5-0.224-0.5-0.5v-8.725c0-0.276,0.224-0.5,0.5-0.5s0.5,0.224,0.5,0.5v8.725
				C54.896,21.58,54.672,21.804,54.396,21.804z"/>
		</g>
		<g>
			<path fill="#FF8184" d="M57.077,21.804c-0.276,0-0.5-0.224-0.5-0.5v-7.166c0-0.276,0.224-0.5,0.5-0.5s0.5,0.224,0.5,0.5v7.166
				C57.577,21.58,57.354,21.804,57.077,21.804z"/>
		</g>
		<g>
			<path fill="#FF8184" d="M59.759,21.804c-0.276,0-0.5-0.224-0.5-0.5v-5.531c0-0.276,0.224-0.5,0.5-0.5s0.5,0.224,0.5,0.5v5.531
				C60.259,21.58,60.035,21.804,59.759,21.804z"/>
		</g>
		<g>
			<path fill="#FF8184" d="M62.44,21.804c-0.276,0-0.5-0.224-0.5-0.5v-3.973c0-0.276,0.224-0.5,0.5-0.5s0.5,0.224,0.5,0.5v3.973
				C62.94,21.58,62.716,21.804,62.44,21.804z"/>
		</g>
		<g>
			<path fill="#FF8184" d="M65.122,21.804c-0.276,0-0.5-0.224-0.5-0.5v-2.489c0-0.276,0.224-0.5,0.5-0.5s0.5,0.224,0.5,0.5v2.489
				C65.622,21.58,65.398,21.804,65.122,21.804z"/>
		</g>
		<g>
			<path fill="#FF8184" d="M67.803,21.804c-0.276,0-0.5-0.224-0.5-0.5v-1.271c0-0.276,0.224-0.5,0.5-0.5s0.5,0.224,0.5,0.5v1.271
				C68.303,21.58,68.079,21.804,67.803,21.804z"/>
		</g>
		<g>
			<path fill="#FF8184" d="M70.484,21.804c-0.276,0-0.5-0.224-0.5-0.5v-0.552c0-0.276,0.224-0.5,0.5-0.5s0.5,0.224,0.5,0.5v0.552
				C70.984,21.58,70.761,21.804,70.484,21.804z"/>
		</g>
		<g>
			<path fill="#FF8184" d="M73.166,21.804c-0.276,0-0.5-0.224-0.5-0.5v-0.302c0-0.276,0.224-0.5,0.5-0.5s0.5,0.224,0.5,0.5v0.302
				C73.666,21.58,73.442,21.804,73.166,21.804z"/>
		</g>
	</g>
	<g>
		<g>
			<path fill="#FF8184" d="M89.254,25.493c-0.276,0-0.5-0.224-0.5-0.5v-0.302c0-0.276,0.224-0.5,0.5-0.5s0.5,0.224,0.5,0.5v0.302
				C89.754,25.27,89.53,25.493,89.254,25.493z"/>
		</g>
		<g>
			<path fill="#FF8184" d="M92.154,25.493c-0.276,0-0.5-0.224-0.5-0.5v-0.302c0-0.276,0.224-0.5,0.5-0.5s0.5,0.224,0.5,0.5v0.302
				C92.654,25.27,92.431,25.493,92.154,25.493z"/>
		</g>
		<g>
			<path fill="#FF8184" d="M94.835,25.493c-0.276,0-0.5-0.224-0.5-0.5v-0.302c0-0.276,0.224-0.5,0.5-0.5s0.5,0.224,0.5,0.5v0.302
				C95.335,25.27,95.111,25.493,94.835,25.493z"/>
		</g>
		<g>
			<path fill="#FF8184" d="M97.517,25.493c-0.276,0-0.5-0.224-0.5-0.5v-0.302c0-0.276,0.224-0.5,0.5-0.5s0.5,0.224,0.5,0.5v0.302
				C98.017,25.27,97.793,25.493,97.517,25.493z"/>
		</g>
		<g>
			<path fill="#FF8184" d="M100.198,25.493c-0.276,0-0.5-0.224-0.5-0.5v-0.302c0-0.276,0.224-0.5,0.5-0.5s0.5,0.224,0.5,0.5v0.302
				C100.698,25.27,100.475,25.493,100.198,25.493z"/>
		</g>
		<g>
			<path fill="#FF8184" d="M102.88,25.493c-0.276,0-0.5-0.224-0.5-0.5v-0.302c0-0.276,0.224-0.5,0.5-0.5s0.5,0.224,0.5,0.5v0.302
				C103.38,25.27,103.156,25.493,102.88,25.493z"/>
		</g>
		<g>
			<path fill="#FF8184" d="M105.561,25.493c-0.276,0-0.5-0.224-0.5-0.5v-0.302c0-0.276,0.224-0.5,0.5-0.5s0.5,0.224,0.5,0.5v0.302
				C106.061,25.27,105.837,25.493,105.561,25.493z"/>
		</g>
		<g>
			<path fill="#FF8184" d="M108.242,25.493c-0.276,0-0.5-0.224-0.5-0.5v-0.302c0-0.276,0.224-0.5,0.5-0.5s0.5,0.224,0.5,0.5v0.302
				C108.742,25.27,108.519,25.493,108.242,25.493z"/>
		</g>
		<g>
			<path fill="#FF8184" d="M110.924,25.493c-0.276,0-0.5-0.224-0.5-0.5v-0.302c0-0.276,0.224-0.5,0.5-0.5s0.5,0.224,0.5,0.5v0.302
				C111.424,25.27,111.2,25.493,110.924,25.493z"/>
		</g>
		<g>
			<path fill="#FF8184" d="M113.605,25.493c-0.276,0-0.5-0.224-0.5-0.5v-0.302c0-0.276,0.224-0.5,0.5-0.5s0.5,0.224,0.5,0.5v0.302
				C114.105,25.27,113.882,25.493,113.605,25.493z"/>
		</g>
		<g>
			<path fill="#FF8184" d="M116.286,25.493c-0.276,0-0.5-0.224-0.5-0.5v-0.302c0-0.276,0.224-0.5,0.5-0.5s0.5,0.224,0.5,0.5v0.302
				C116.786,25.27,116.562,25.493,116.286,25.493z"/>
		</g>
		<g>
			<path fill="#FF8184" d="M118.968,25.493c-0.276,0-0.5-0.224-0.5-0.5v-0.302c0-0.276,0.224-0.5,0.5-0.5s0.5,0.224,0.5,0.5v0.302
				C119.468,25.27,119.244,25.493,118.968,25.493z"/>
		</g>
		<g>
			<path fill="#FF8184" d="M121.649,25.493c-0.276,0-0.5-0.224-0.5-0.5v-0.302c0-0.276,0.224-0.5,0.5-0.5s0.5,0.224,0.5,0.5v0.302
				C122.149,25.27,121.926,25.493,121.649,25.493z"/>
		</g>
		<g>
			<path fill="#FF8184" d="M124.331,25.493c-0.276,0-0.5-0.224-0.5-0.5v-0.302c0-0.276,0.224-0.5,0.5-0.5s0.5,0.224,0.5,0.5v0.302
				C124.831,25.27,124.607,25.493,124.331,25.493z"/>
		</g>
		<g>
			<path fill="#FF8184" d="M127.012,25.493c-0.276,0-0.5-0.224-0.5-0.5v-0.302c0-0.276,0.224-0.5,0.5-0.5s0.5,0.224,0.5,0.5v0.302
				C127.512,25.27,127.288,25.493,127.012,25.493z"/>
		</g>
		<g>
			<path fill="#FF8184" d="M129.693,25.493c-0.276,0-0.5-0.224-0.5-0.5v-0.302c0-0.276,0.224-0.5,0.5-0.5s0.5,0.224,0.5,0.5v0.302
				C130.193,25.27,129.97,25.493,129.693,25.493z"/>
		</g>
		<g>
			<path fill="#FF8184" d="M132.375,25.493c-0.276,0-0.5-0.224-0.5-0.5v-0.302c0-0.276,0.224-0.5,0.5-0.5s0.5,0.224,0.5,0.5v0.302
				C132.875,25.27,132.651,25.493,132.375,25.493z"/>
		</g>
		<g>
			<path fill="#FF8184" d="M135.057,25.493c-0.276,0-0.5-0.224-0.5-0.5v-0.302c0-0.276,0.224-0.5,0.5-0.5s0.5,0.224,0.5,0.5v0.302
				C135.557,25.27,135.333,25.493,135.057,25.493z"/>
		</g>
		<g>
			<path fill="#FF8184" d="M137.737,25.493c-0.276,0-0.5-0.224-0.5-0.5v-0.302c0-0.276,0.224-0.5,0.5-0.5s0.5,0.224,0.5,0.5v0.302
				C138.237,25.27,138.014,25.493,137.737,25.493z"/>
		</g>
		<g>
			<path fill="#FF8184" d="M140.419,25.493c-0.276,0-0.5-0.224-0.5-0.5v-0.302c0-0.276,0.224-0.5,0.5-0.5s0.5,0.224,0.5,0.5v0.302
				C140.919,25.27,140.695,25.493,140.419,25.493z"/>
		</g>
		<g>
			<path fill="#FF8184" d="M143.101,25.493c-0.276,0-0.5-0.224-0.5-0.5v-0.302c0-0.276,0.224-0.5,0.5-0.5s0.5,0.224,0.5,0.5v0.302
				C143.601,25.27,143.377,25.493,143.101,25.493z"/>
		</g>
		<g>
			<path fill="#FF8184" d="M86.572,25.744c-0.276,0-0.5-0.224-0.5-0.5v-0.553c0-0.276,0.224-0.5,0.5-0.5s0.5,0.224,0.5,0.5v0.553
				C87.072,25.52,86.849,25.744,86.572,25.744z"/>
		</g>
		<g>
			<path fill="#FF8184" d="M83.892,26.461c-0.276,0-0.5-0.224-0.5-0.5v-1.271c0-0.276,0.224-0.5,0.5-0.5s0.5,0.224,0.5,0.5v1.271
				C84.392,26.238,84.168,26.461,83.892,26.461z"/>
		</g>
		<g>
			<path fill="#FF8184" d="M81.21,27.68c-0.276,0-0.5-0.224-0.5-0.5v-2.489c0-0.276,0.224-0.5,0.5-0.5s0.5,0.224,0.5,0.5v2.489
				C81.71,27.457,81.486,27.68,81.21,27.68z"/>
		</g>
		<g>
			<path fill="#FF8184" d="M78.528,29.164c-0.276,0-0.5-0.224-0.5-0.5v-3.973c0-0.276,0.224-0.5,0.5-0.5s0.5,0.224,0.5,0.5v3.973
				C79.028,28.94,78.805,29.164,78.528,29.164z"/>
		</g>
		<g>
			<path fill="#FF8184" d="M75.847,30.722c-0.276,0-0.5-0.224-0.5-0.5v-5.531c0-0.276,0.224-0.5,0.5-0.5c0.276,0,0.5,0.224,0.5,0.5
				v5.531C76.348,30.499,76.123,30.722,75.847,30.722z"/>
		</g>
		<g>
			<path fill="#FF8184" d="M73.166,32.357c-0.276,0-0.5-0.224-0.5-0.5v-7.166c0-0.276,0.224-0.5,0.5-0.5s0.5,0.224,0.5,0.5v7.166
				C73.666,32.133,73.442,32.357,73.166,32.357z"/>
		</g>
		<g>
			<path fill="#FF8184" d="M70.484,33.916c-0.276,0-0.5-0.224-0.5-0.5v-8.725c0-0.276,0.224-0.5,0.5-0.5s0.5,0.224,0.5,0.5v8.725
				C70.984,33.692,70.761,33.916,70.484,33.916z"/>
		</g>
		<g>
			<path fill="#FF8184" d="M67.803,35.838c-0.276,0-0.5-0.224-0.5-0.5V24.691c0-0.276,0.224-0.5,0.5-0.5s0.5,0.224,0.5,0.5v10.647
				C68.303,35.614,68.079,35.838,67.803,35.838z"/>
		</g>
		<g>
			<path fill="#FF8184" d="M65.122,37.501c-0.276,0-0.5-0.224-0.5-0.5V24.691c0-0.276,0.224-0.5,0.5-0.5s0.5,0.224,0.5,0.5v12.311
				C65.622,37.278,65.398,37.501,65.122,37.501z"/>
		</g>
		<g>
			<path fill="#FF8184" d="M62.44,38.711c-0.276,0-0.5-0.224-0.5-0.5v-13.52c0-0.276,0.224-0.5,0.5-0.5s0.5,0.224,0.5,0.5v13.52
				C62.94,38.487,62.716,38.711,62.44,38.711z"/>
		</g>
		<g>
			<path fill="#FF8184" d="M59.759,39.77c-0.276,0-0.5-0.224-0.5-0.5V24.691c0-0.276,0.224-0.5,0.5-0.5s0.5,0.224,0.5,0.5V39.27
				C60.259,39.546,60.035,39.77,59.759,39.77z"/>
		</g>
		<g>
			<path fill="#FF8184" d="M57.077,40.407c-0.276,0-0.5-0.224-0.5-0.5V24.691c0-0.276,0.224-0.5,0.5-0.5s0.5,0.224,0.5,0.5v15.216
				C57.577,40.183,57.354,40.407,57.077,40.407z"/>
		</g>
		<g>
			<path fill="#FF8184" d="M54.396,40.634c-0.276,0-0.5-0.224-0.5-0.5V24.691c0-0.276,0.224-0.5,0.5-0.5s0.5,0.224,0.5,0.5v15.443
				C54.896,40.41,54.672,40.634,54.396,40.634z"/>
		</g>
		<g>
			<path fill="#FF8184" d="M51.714,40.407c-0.276,0-0.5-0.224-0.5-0.5V24.691c0-0.276,0.224-0.5,0.5-0.5s0.5,0.224,0.5,0.5v15.216
				C52.214,40.183,51.991,40.407,51.714,40.407z"/>
		</g>
		<g>
			<path fill="#FF8184" d="M49.033,39.77c-0.276,0-0.5-0.224-0.5-0.5V24.691c0-0.276,0.224-0.5,0.5-0.5s0.5,0.224,0.5,0.5V39.27
				C49.533,39.546,49.31,39.77,49.033,39.77z"/>
		</g>
		<g>
			<path fill="#FF8184" d="M46.352,38.711c-0.276,0-0.5-0.224-0.5-0.5v-13.52c0-0.276,0.224-0.5,0.5-0.5s0.5,0.224,0.5,0.5v13.52
				C46.852,38.487,46.628,38.711,46.352,38.711z"/>
		</g>
		<g>
			<path fill="#FF8184" d="M43.67,37.501c-0.276,0-0.5-0.224-0.5-0.5V24.691c0-0.276,0.224-0.5,0.5-0.5s0.5,0.224,0.5,0.5v12.311
				C44.17,37.278,43.947,37.501,43.67,37.501z"/>
		</g>
		<g>
			<path fill="#FF8184" d="M40.989,35.838c-0.276,0-0.5-0.224-0.5-0.5V24.691c0-0.276,0.224-0.5,0.5-0.5s0.5,0.224,0.5,0.5v10.647
				C41.489,35.614,41.265,35.838,40.989,35.838z"/>
		</g>
		<g>
			<path fill="#FF8184" d="M38.308,33.916c-0.276,0-0.5-0.224-0.5-0.5v-8.725c0-0.276,0.224-0.5,0.5-0.5s0.5,0.224,0.5,0.5v8.725
				C38.808,33.692,38.584,33.916,38.308,33.916z"/>
		</g>
		<g>
			<path fill="#FF8184" d="M35.626,32.357c-0.276,0-0.5-0.224-0.5-0.5v-7.166c0-0.276,0.224-0.5,0.5-0.5s0.5,0.224,0.5,0.5v7.166
				C36.126,32.133,35.902,32.357,35.626,32.357z"/>
		</g>
		<g>
			<path fill="#FF8184" d="M32.945,30.722c-0.276,0-0.5-0.224-0.5-0.5v-5.531c0-0.276,0.224-0.5,0.5-0.5s0.5,0.224,0.5,0.5v5.531
				C33.445,30.499,33.221,30.722,32.945,30.722z"/>
		</g>
		<g>
			<path fill="#FF8184" d="M30.263,29.164c-0.276,0-0.5-0.224-0.5-0.5v-3.973c0-0.276,0.224-0.5,0.5-0.5s0.5,0.224,0.5,0.5v3.973
				C30.763,28.94,30.54,29.164,30.263,29.164z"/>
		</g>
		<g>
			<path fill="#FF8184" d="M27.582,27.68c-0.276,0-0.5-0.224-0.5-0.5v-2.489c0-0.276,0.224-0.5,0.5-0.5s0.5,0.224,0.5,0.5v2.489
				C28.082,27.457,27.858,27.68,27.582,27.68z"/>
		</g>
		<g>
			<path fill="#FF8184" d="M24.9,26.461c-0.276,0-0.5-0.224-0.5-0.5v-1.271c0-0.276,0.224-0.5,0.5-0.5s0.5,0.224,0.5,0.5v1.271
				C25.4,26.238,25.177,26.461,24.9,26.461z"/>
		</g>
		<g>
			<path fill="#FF8184" d="M22.219,25.744c-0.276,0-0.5-0.224-0.5-0.5v-0.553c0-0.276,0.224-0.5,0.5-0.5s0.5,0.224,0.5,0.5v0.553
				C22.719,25.52,22.496,25.744,22.219,25.744z"/>
		</g>
		<g>
			<path fill="#FF8184" d="M19.538,25.493c-0.276,0-0.5-0.224-0.5-0.5v-0.302c0-0.276,0.224-0.5,0.5-0.5s0.5,0.224,0.5,0.5v0.302
				C20.038,25.27,19.814,25.493,19.538,25.493z"/>
		</g>
		<g>
			<path fill="#FF8184" d="M16.856,25.493c-0.276,0-0.5-0.224-0.5-0.5v-0.302c0-0.276,0.224-0.5,0.5-0.5s0.5,0.224,0.5,0.5v0.302
				C17.356,25.27,17.133,25.493,16.856,25.493z"/>
		</g>
		<g>
			<path fill="#FF8184" d="M14.175,25.493c-0.276,0-0.5-0.224-0.5-0.5v-0.302c0-0.276,0.224-0.5,0.5-0.5s0.5,0.224,0.5,0.5v0.302
				C14.675,25.27,14.451,25.493,14.175,25.493z"/>
		</g>
		<g>
			<path fill="#FF8184" d="M11.494,25.493c-0.276,0-0.5-0.224-0.5-0.5v-0.302c0-0.276,0.224-0.5,0.5-0.5s0.5,0.224,0.5,0.5v0.302
				C11.994,25.27,11.77,25.493,11.494,25.493z"/>
		</g>
		<g>
			<path fill="#FF8184" d="M8.812,25.493c-0.276,0-0.5-0.224-0.5-0.5v-0.302c0-0.276,0.224-0.5,0.5-0.5s0.5,0.224,0.5,0.5v0.302
				C9.312,25.27,9.088,25.493,8.812,25.493z"/>
		</g>
		<g>
			<path fill="#FF8184" d="M6.131,25.493c-0.276,0-0.5-0.224-0.5-0.5v-0.302c0-0.276,0.224-0.5,0.5-0.5s0.5,0.224,0.5,0.5v0.302
				C6.631,25.27,6.407,25.493,6.131,25.493z"/>
		</g>
		<g>
			<path fill="#FF8184" d="M3.449,25.493c-0.276,0-0.5-0.224-0.5-0.5v-0.302c0-0.276,0.224-0.5,0.5-0.5s0.5,0.224,0.5,0.5v0.302
				C3.949,25.27,3.726,25.493,3.449,25.493z"/>
		</g>
	</g>
	<g>
		<g>
			<path fill="#FF8184" d="M73.384,21.804c-0.276,0-0.5-0.224-0.5-0.5v-0.302c0-0.276,0.224-0.5,0.5-0.5s0.5,0.224,0.5,0.5v0.302
				C73.884,21.58,73.661,21.804,73.384,21.804z"/>
		</g>
		<g>
			<path fill="#FF8184" d="M76.065,21.804c-0.276,0-0.5-0.224-0.5-0.5v-0.552c0-0.276,0.224-0.5,0.5-0.5s0.5,0.224,0.5,0.5v0.552
				C76.565,21.58,76.342,21.804,76.065,21.804z"/>
		</g>
		<g>
			<path fill="#FF8184" d="M78.747,21.804c-0.276,0-0.5-0.224-0.5-0.5v-1.271c0-0.276,0.224-0.5,0.5-0.5s0.5,0.224,0.5,0.5v1.271
				C79.247,21.58,79.023,21.804,78.747,21.804z"/>
		</g>
		<g>
			<path fill="#FF8184" d="M81.429,21.804c-0.276,0-0.5-0.224-0.5-0.5v-2.489c0-0.276,0.224-0.5,0.5-0.5s0.5,0.224,0.5,0.5v2.489
				C81.929,21.58,81.705,21.804,81.429,21.804z"/>
		</g>
		<g>
			<path fill="#FF8184" d="M84.109,21.804c-0.276,0-0.5-0.224-0.5-0.5v-3.973c0-0.276,0.224-0.5,0.5-0.5s0.5,0.224,0.5,0.5v3.973
				C84.609,21.58,84.386,21.804,84.109,21.804z"/>
		</g>
		<g>
			<path fill="#FF8184" d="M86.791,21.804c-0.276,0-0.5-0.224-0.5-0.5v-5.531c0-0.276,0.224-0.5,0.5-0.5s0.5,0.224,0.5,0.5v5.531
				C87.291,21.58,87.067,21.804,86.791,21.804z"/>
		</g>
		<g>
			<path fill="#FF8184" d="M89.473,21.804c-0.276,0-0.5-0.224-0.5-0.5v-7.166c0-0.276,0.224-0.5,0.5-0.5s0.5,0.224,0.5,0.5v7.166
				C89.973,21.58,89.749,21.804,89.473,21.804z"/>
		</g>
		<g>
			<path fill="#FF8184" d="M92.154,21.804c-0.276,0-0.5-0.224-0.5-0.5v-8.725c0-0.276,0.224-0.5,0.5-0.5s0.5,0.224,0.5,0.5v8.725
				C92.654,21.58,92.431,21.804,92.154,21.804z"/>
		</g>
		<g>
			<path fill="#FF8184" d="M94.835,21.804c-0.276,0-0.5-0.224-0.5-0.5V10.657c0-0.276,0.224-0.5,0.5-0.5s0.5,0.224,0.5,0.5v10.647
				C95.335,21.58,95.111,21.804,94.835,21.804z"/>
		</g>
		<g>
			<path fill="#FF8184" d="M97.517,21.804c-0.276,0-0.5-0.224-0.5-0.5V8.994c0-0.276,0.224-0.5,0.5-0.5s0.5,0.224,0.5,0.5v12.31
				C98.017,21.58,97.793,21.804,97.517,21.804z"/>
		</g>
		<g>
			<path fill="#FF8184" d="M100.198,21.804c-0.276,0-0.5-0.224-0.5-0.5V7.784c0-0.276,0.224-0.5,0.5-0.5s0.5,0.224,0.5,0.5v13.52
				C100.698,21.58,100.475,21.804,100.198,21.804z"/>
		</g>
		<g>
			<path fill="#FF8184" d="M102.88,21.804c-0.276,0-0.5-0.224-0.5-0.5V6.725c0-0.276,0.224-0.5,0.5-0.5s0.5,0.224,0.5,0.5v14.579
				C103.38,21.58,103.156,21.804,102.88,21.804z"/>
		</g>
		<g>
			<path fill="#FF8184" d="M105.561,21.804c-0.276,0-0.5-0.224-0.5-0.5V6.088c0-0.276,0.224-0.5,0.5-0.5s0.5,0.224,0.5,0.5v15.216
				C106.061,21.58,105.837,21.804,105.561,21.804z"/>
		</g>
		<g>
			<path fill="#FF8184" d="M108.242,21.804c-0.276,0-0.5-0.224-0.5-0.5V5.861c0-0.276,0.224-0.5,0.5-0.5s0.5,0.224,0.5,0.5v15.442
				C108.742,21.58,108.519,21.804,108.242,21.804z"/>
		</g>
		<g>
			<path fill="#FF8184" d="M110.924,21.804c-0.276,0-0.5-0.224-0.5-0.5V6.088c0-0.276,0.224-0.5,0.5-0.5s0.5,0.224,0.5,0.5v15.216
				C111.424,21.58,111.2,21.804,110.924,21.804z"/>
		</g>
		<g>
			<path fill="#FF8184" d="M113.605,21.804c-0.276,0-0.5-0.224-0.5-0.5V6.725c0-0.276,0.224-0.5,0.5-0.5s0.5,0.224,0.5,0.5v14.579
				C114.105,21.58,113.882,21.804,113.605,21.804z"/>
		</g>
		<g>
			<path fill="#FF8184" d="M116.286,21.804c-0.276,0-0.5-0.224-0.5-0.5V7.784c0-0.276,0.224-0.5,0.5-0.5s0.5,0.224,0.5,0.5v13.52
				C116.786,21.58,116.562,21.804,116.286,21.804z"/>
		</g>
		<g>
			<path fill="#FF8184" d="M118.968,21.804c-0.276,0-0.5-0.224-0.5-0.5V8.994c0-0.276,0.224-0.5,0.5-0.5s0.5,0.224,0.5,0.5v12.31
				C119.468,21.58,119.244,21.804,118.968,21.804z"/>
		</g>
		<g>
			<path fill="#FF8184" d="M121.649,21.804c-0.276,0-0.5-0.224-0.5-0.5V10.657c0-0.276,0.224-0.5,0.5-0.5s0.5,0.224,0.5,0.5v10.647
				C122.149,21.58,121.926,21.804,121.649,21.804z"/>
		</g>
		<g>
			<path fill="#FF8184" d="M124.331,21.804c-0.276,0-0.5-0.224-0.5-0.5v-8.725c0-0.276,0.224-0.5,0.5-0.5s0.5,0.224,0.5,0.5v8.725
				C124.831,21.58,124.607,21.804,124.331,21.804z"/>
		</g>
		<g>
			<path fill="#FF8184" d="M127.012,21.804c-0.276,0-0.5-0.224-0.5-0.5v-7.166c0-0.276,0.224-0.5,0.5-0.5s0.5,0.224,0.5,0.5v7.166
				C127.512,21.58,127.288,21.804,127.012,21.804z"/>
		</g>
		<g>
			<path fill="#FF8184" d="M129.693,21.804c-0.276,0-0.5-0.224-0.5-0.5v-5.531c0-0.276,0.224-0.5,0.5-0.5s0.5,0.224,0.5,0.5v5.531
				C130.193,21.58,129.97,21.804,129.693,21.804z"/>
		</g>
		<g>
			<path fill="#FF8184" d="M132.375,21.804c-0.276,0-0.5-0.224-0.5-0.5v-3.973c0-0.276,0.224-0.5,0.5-0.5s0.5,0.224,0.5,0.5v3.973
				C132.875,21.58,132.651,21.804,132.375,21.804z"/>
		</g>
		<g>
			<path fill="#FF8184" d="M135.057,21.804c-0.276,0-0.5-0.224-0.5-0.5v-2.489c0-0.276,0.224-0.5,0.5-0.5s0.5,0.224,0.5,0.5v2.489
				C135.557,21.58,135.333,21.804,135.057,21.804z"/>
		</g>
		<g>
			<path fill="#FF8184" d="M137.737,21.804c-0.276,0-0.5-0.224-0.5-0.5v-1.271c0-0.276,0.224-0.5,0.5-0.5s0.5,0.224,0.5,0.5v1.271
				C138.237,21.58,138.014,21.804,137.737,21.804z"/>
		</g>
		<g>
			<path fill="#FF8184" d="M140.419,21.804c-0.276,0-0.5-0.224-0.5-0.5v-0.552c0-0.276,0.224-0.5,0.5-0.5s0.5,0.224,0.5,0.5v0.552
				C140.919,21.58,140.695,21.804,140.419,21.804z"/>
		</g>
		<g>
			<path fill="#FF8184" d="M143.101,21.804c-0.276,0-0.5-0.224-0.5-0.5v-0.302c0-0.276,0.224-0.5,0.5-0.5s0.5,0.224,0.5,0.5v0.302
				C143.601,21.58,143.377,21.804,143.101,21.804z"/>
		</g>
	</g>
</g>
</svg>
